<?xml version="1.0" encoding="utf-8"?>
<!-- Generator: Adobe Illustrator 23.0.3, SVG Export Plug-In . SVG Version: 6.00 Build 0)  -->
<svg version="1.1" id="_x32_" xmlns="http://www.w3.org/2000/svg" xmlns:xlink="http://www.w3.org/1999/xlink" x="0px" y="0px"
	 viewBox="0 0 512 512" style="enable-background:new 0 0 512 512;" xml:space="preserve">
<style type="text/css">
	.st0{fill:#666666;}
</style>
<g>
	<polygon class="st0" points="450.6,152.1 450.6,171.3 256.5,323.7 61.4,170.4 61.4,149 256.5,256 	"/>
	<g>
		<path class="st0" d="M2,64c-1.1,0-2,0.9-2,2v380c0,1.1,0.9,2,2,2h508c1.1,0,2-0.9,2-2V66c0-1.1-0.9-2-2-2H2z M46.4,403.5
			c-1.1,0-2-0.9-2-2v-291c0-1.1,0.9-2,2-2h419.2c1.1,0,2,0.9,2,2v291c0,1.1-0.9,2-2,2L46.4,403.5L46.4,403.5z"/>
	</g>
</g>
</svg>
