<?xml version="1.0" encoding="utf-8"?>
<!-- Generator: Adobe Illustrator 23.0.3, SVG Export Plug-In . SVG Version: 6.00 Build 0)  -->
<svg version="1.1" id="レイヤー_1" xmlns="http://www.w3.org/2000/svg" xmlns:xlink="http://www.w3.org/1999/xlink" x="0px"
	 y="0px" viewBox="0 0 24 24" style="enable-background:new 0 0 24 24;" xml:space="preserve">
<style type="text/css">
	.st0{fill:#666666;}
</style>
<title>Stack Exchange icon</title>
<path class="st0" d="M21.7,15.6v1c0,1.8-1.4,3.2-3.1,3.2h-0.9L13.6,24v-4.2H5.4c-1.7,0-3.1-1.4-3.1-3.2v-1
	C2.3,15.6,21.7,15.6,21.7,15.6z M2.3,10.5h19.3v4H2.3V10.5z M2.3,5.3h19.3v4H2.3C2.3,9.3,2.3,5.3,2.3,5.3z M18.6,0
	c1.7,0,3,1.4,3,3.2v1H2.3v-1C2.3,1.4,3.7,0,5.4,0H18.6z"/>
</svg>
