<?xml version="1.0" encoding="utf-8"?>
<!-- Generator: Adobe Illustrator 23.0.3, SVG Export Plug-In . SVG Version: 6.00 Build 0)  -->
<svg version="1.1" id="レイヤー_1" xmlns="http://www.w3.org/2000/svg" xmlns:xlink="http://www.w3.org/1999/xlink" x="0px"
	 y="0px" viewBox="0 0 24 24" style="enable-background:new 0 0 24 24;" xml:space="preserve">
<style type="text/css">
	.st0{fill:#666666;}
</style>
<title>Keybase icon</title>
<path class="st0" d="M10.4,21.4c0,0.5-0.4,1-1,1c-0.5,0-1-0.4-1-1c0-0.5,0.4-1,1-1C10,20.4,10.4,20.8,10.4,21.4 M16.4,21.4
	c0,0.5-0.4,1-1,1c-0.5,0-1-0.4-1-1c0-0.5,0.4-1,0.9-1S16.4,20.8,16.4,21.4"/>
<path class="st0" d="M20.9,12.2L20.7,12c0-0.1-0.1-0.1-0.1-0.2c0-0.1-0.1-0.1-0.1-0.2c-0.1-0.1-0.2-0.2-0.3-0.4l-0.1-0.1L20,11.1
	L19.8,11c0,0,0,0,0-0.1c-1.2-1.1-2.5-2-4-2.5l-0.2-0.1c0,0,0-0.1,0-0.1C16.1,7.2,16,6.1,15.5,5c-0.5-1-1.4-1.8-2.4-2.2
	c-0.7-0.2-1.2-0.3-1.7-0.3c0-0.1-0.1-0.6,0.5-1.8L10.7,0l-0.3,0.4C10,0.9,9.7,1.3,9.4,1.7C9.1,1.4,8.7,1.2,8.2,1.1L6.8,1.1h0
	c0,0-0.1,0-0.1,0c-1,0-1.8,0.8-1.9,1.8L4.7,4.2v0c-0.1,1,0.7,1.9,1.8,2l1,0.1C7.4,7.1,7.5,7.9,7.9,8.6C6.5,9.1,5.3,10,4.2,11
	c-3.3,3.3-3.3,7-3.3,9.9v1.8l1.3-1.4c0.3,0.9,0.7,1.8,1.1,2.6h1.7c-0.8-1.1-1.4-2.4-1.7-3.8l1.9-2l-1,3.1L6,19.9
	c3.1-2.2,6.7-2.8,10.9-1.5c1.8,0.5,3.6,0,4.5-1.3l0.1-0.2c0.1,0.5,0.1,1,0.1,1.5c0,1.6-0.3,3.7-1.4,5.5h1.6c0.8-1.6,1.2-3.4,1.2-5.5
	C23.1,16.3,22.3,14.1,20.9,12.2z M8.9,6.2c0.1-1,0.6-1.9,1.2-3c0,0,0.1,0.1,0.1,0.1C10.5,3.8,10.9,4,11.4,4c0.2,0,0.6,0,1.2,0.2
	c0.7,0.2,1.3,0.7,1.6,1.4s0.3,1.4,0.1,2.1c-0.2,0.4-0.5,0.8-0.8,1.1l-0.4-0.5l0,0C12.8,8,12.4,7.8,12,7.8c-0.3,0-0.7,0.1-0.9,0.3
	c-0.3,0.3-0.5,0.7-0.5,1.1C9.3,8.7,8.7,7.6,8.9,6.2L8.9,6.2z M13.2,11.3l-0.5,0.4c0,0-0.1,0.1-0.1,0.1c-0.1,0-0.1,0-0.2-0.1
	l-0.1-0.1c-0.1-0.1-0.1-0.3,0-0.3l0.5-0.4l-1.1-1.3c-0.1-0.1-0.1-0.3,0-0.4C11.8,9,11.9,9,12,9c0.1,0,0.2,0,0.2,0.1l3,3.6
	c0.1,0.1,0.1,0.3,0,0.4c0,0-0.1,0.1-0.1,0.1c0,0,0,0-0.1,0c-0.1,0-0.2,0-0.2-0.1l-0.3-0.4l-1,0.9c0,0-0.1,0.1-0.2,0.1
	c-0.1,0-0.1,0-0.2-0.1L12.5,13c-0.1-0.1-0.1-0.3,0-0.3l1.1-0.9L13.2,11.3C13.2,11.3,13.2,11.3,13.2,11.3z M7.8,4.9L6.6,4.8
	c-0.3,0-0.4-0.2-0.4-0.5l0.1-1.4c0-0.2,0.2-0.4,0.5-0.4h0l1.4,0.1c0.1,0,0.2,0.1,0.3,0.2C8.5,2.8,8.5,2.9,8.5,3l0,0.1
	C8.2,3.7,7.9,4.3,7.8,4.9C7.8,4.9,7.8,4.9,7.8,4.9z M20.3,16.3c-0.6,0.8-1.7,1.1-2.9,0.7c-3.9-1.1-7.4-0.9-10.5,0.7l1.6-5.1
	l-5.3,5.6c0.1-3.8,2.5-7,5.8-8.3c0.5,0.4,1,0.7,1.7,0.8c0.2,0,0.3,0.1,0.5,0.1c-0.2,0.5-0.1,1,0.2,1.4l0.1,0.1
	c-0.2,0.4-0.1,1,0.2,1.4l0.5,0.6c0.3,0.3,0.7,0.5,1.1,0.5c0.3,0,0.6-0.1,0.9-0.3l0.3-0.2c0.2,0.1,0.4,0.1,0.6,0.1c0.1,0,0.2,0,0.3,0
	c0.2-0.1,0.4-0.1,0.6-0.3c0.6-0.5,0.7-1.4,0.2-2.1L14.4,10c0.1-0.1,0.3-0.2,0.4-0.4c0.1,0,0.3,0.1,0.4,0.1c0.3,0.1,0.5,0.2,0.8,0.3
	c1,0.4,2,1.1,2.8,1.9c0,0,0.1,0.1,0.1,0.1l0.2,0.2c0,0,0.1,0.1,0.1,0.1c0.1,0.1,0.2,0.2,0.2,0.3l0.1,0.1c0,0.1,0.1,0.1,0.1,0.2
	l0.1,0.1c0,0.1,0.1,0.1,0.1,0.2C20.7,14.3,20.9,15.5,20.3,16.3L20.3,16.3L20.3,16.3z"/>
<path class="st0" d="M7.7,4.1L6.9,4.1l0.1-0.8l0.8,0.1L7.7,4.1z"/>
</svg>
