<?xml version="1.0" encoding="utf-8"?>
<!-- Generator: Adobe Illustrator 23.0.3, SVG Export Plug-In . SVG Version: 6.00 Build 0)  -->
<svg version="1.1" id="レイヤー_1" xmlns="http://www.w3.org/2000/svg" xmlns:xlink="http://www.w3.org/1999/xlink" x="0px"
	 y="0px" viewBox="0 0 176 176" style="enable-background:new 0 0 176 176;" xml:space="preserve">
<style type="text/css">
	.st0{fill:#666666;}
</style>
<path class="st0" d="M11,65"/>
<path class="st0" d="M121.7,35.2c-18.8,0.4-34.5,12.7-40.2,29.5c-7.8-6.8-18.1-10.8-29.2-10.6C28.4,54.5,9.4,74.3,9.8,98.2
	c0.5,23.9,20.2,42.9,44.1,42.4c18.8-0.3,34.6-12.6,40.2-29.4c7.8,6.8,18.1,10.8,29.2,10.6c23.9-0.4,42.9-20.2,42.5-44.1
	S145.6,34.8,121.7,35.2 M53.5,119.5c-12.2,0.2-22.3-9.5-22.6-21.8c-0.2-12.2,9.5-22.3,21.7-22.6C64.9,75,75,84.7,75.2,96.9
	C75.5,109.1,65.7,119.3,53.5,119.5 M122.9,100.6c-12.2,0.2-22.3-9.5-22.6-21.7c-0.2-12.2,9.6-22.3,21.8-22.5s22.3,9.5,22.6,21.7
	C144.9,90.3,135.2,100.4,122.9,100.6"/>
</svg>
