<?xml version="1.0" encoding="utf-8"?>
<!-- Generator: Adobe Illustrator 23.0.3, SVG Export Plug-In . SVG Version: 6.00 Build 0)  -->
<svg version="1.1" id="レイヤー_1" xmlns="http://www.w3.org/2000/svg" xmlns:xlink="http://www.w3.org/1999/xlink" x="0px"
	 y="0px" viewBox="0 0 24 24" style="enable-background:new 0 0 24 24;" xml:space="preserve">
<style type="text/css">
	.st0{fill:#666666;}
</style>
<title>Plurk icon</title>
<path class="st0" d="M12.9,1.9C9.8,1.9,7,3.2,5,5.6C4.9,5.7,4.8,5.8,4.7,6l0,0C5,5.8,5.2,5.6,5.5,5.5l0.1,0c0.3-0.1,0.6-0.1,0.9-0.1
	C7.9,5.7,8.6,8,8.1,10.6S6,15,4.6,14.7c-1-0.2-1.7-1.4-1.8-3v0v0.1c0,0.1,0,0.3,0,0.4v0.1l0,0.1c0,0.1,0,0.3,0,0.4
	c0,0.1,0,0.1,0,0.2c0.1,1.2,0.4,2.4,1,3.4c0.1,0.1,0,0.3-0.1,0.4L3.4,17c-0.3,0.2-0.4,0.6-0.3,1c0,0,0,0,0,0c0,0,0,0.1,0.1,0.1l0,0
	l0.2-0.2c0.1-0.1,0.3-0.1,0.4,0c0.1,0.1,0.1,0.3-0.1,0.4l0,0l-0.2,0.2l0,0L4.7,20c0.3,0.4,0.9,0.4,1.3,0.1l0.3-0.2
	c0.1-0.1,0.3-0.1,0.4,0c1.9,1.5,4.2,2.2,6.5,2.2c2,0,3.9-0.7,5.6-1.9c0.1-0.1,0.3-0.1,0.4,0l0.2,0.2c0.3,0.3,0.8,0.3,1.2,0.1l0,0
	l-0.2-0.2c-0.1-0.1-0.1-0.3,0-0.4c0.1-0.1,0.3-0.1,0.4,0l0.2,0.2l1.3-1.3c0.3-0.4,0.3-0.9,0-1.3l-0.3-0.3c-0.1-0.1-0.1-0.2-0.1-0.4
	c1.1-2,1.5-4.4,1.1-6.7c0.3-0.3,0.9-0.8,1.1-1.3c0.2-0.5,0.3-1-0.3-0.8c-0.5,0.2-0.8,0.3-1.3,0.2c-1.4-3.6-4.8-6.2-8.9-6.4
	C13.2,1.9,13.1,1.9,12.9,1.9L12.9,1.9z M2.3,6.2C1.6,6.3,1,6.8,1.1,7.5c0,0.2,0,0.4,0.1,0.5C0.5,8,0,8.6,0,9.3s0.6,1.2,1.3,1.2
	c0.2,0,0.5-0.1,0.7-0.2c0.2-0.1,0.3-0.3,0.4-0.5c0.2,0.3,0.5,0.6,0.8,0.8c0,0.2,0,0.4,0,0.6c0.1,1.2,0.6,2.2,1.4,2.3
	c1.1,0.2,2.3-1.2,2.7-3.2c0.4-2-0.2-3.8-1.3-4C5.5,6.2,5.1,6.4,4.7,6.7c-0.4,0.4-0.9,1-1.1,1.7c0,0,0,0,0,0c-0.1,0-0.2-0.1-0.3-0.2
	C3.7,7.8,3.6,7,3.1,6.6C2.9,6.4,2.6,6.2,2.3,6.2z M5.1,7.5c0.1,0,0.1,0,0.2,0C6,7.6,6.4,8.8,6.1,10.1c-0.3,1.3-1.1,2.2-1.8,2.1
	c-0.5-0.1-0.8-0.7-0.9-1.4c0.2,0.1,0.4,0.1,0.6,0.1c0.5,0,0.9-0.2,1.1-0.5c0.3-0.5,0.1-1.8-0.4-1.9c-0.4-0.1-0.6,0-0.9,0.1
	C4,8.2,4.2,8,4.4,7.8C4.7,7.6,4.9,7.5,5.1,7.5L5.1,7.5z"/>
</svg>
